# xmcd CD database file
# Copyright (C) 1993-1996 Ti Kan
#
# Track frame offsets:
#  150
#  17930
#  31950
#  50242
#  69698
#  92017
#  106468
#  123921
#  143093
#  163516
#  180393
#  196377
#
# Disc length: 2816 seconds
#
# Revision: 1
# Processed by: cddbd v1.5.2PL0 Copyright (c) Steve Scherf et al.
# Submitted via: Advanced CD Ripper Pro 2.0
#
DISCID=a50afe0c
DTITLE=ÝBRAHÝM TATLISES - HANÝ GELECEKTÝN
DYEAR=2003
DGENRE=other
TTITLE0=HANÝ GELECEKTÝN
TTITLE1=DERDÝNE YAN TAMAM MI
TTITLE2=BÝZ NE AYRILIKLAR GÖRMÜÞ ADAMIZ
TTITLE3=LE DAYE
TTITLE4=GARÝP
TTITLE5=SEN OLSAN ÝÇMEZMÝYDÝN
TTITLE6=VAY VAY ZARA
TTITLE7=BÝZ TÜRKÜZ BÝZ KÜRDÜZ
TTITLE8=YAÐMUR DUASI
TTITLE9=KÝME NE
TTITLE10=YIKILIRIM ELLERÝMÝ BIRAKMA
TTITLE11=PEMBE TENLÝM ELA GÖZLÜM
EXTD=
EXTT0=
EXTT1=
EXTT2=
EXTT3=
EXTT4=
EXTT5=
EXTT6=
EXTT7=
EXTT8=
EXTT9=
EXTT10=
EXTT11=
PLAYORDER=
